<svg xmlns="http://www.w3.org/2000/svg" viewBox="0 0 24 24" role="img" aria-label="WhatsApp">
  <circle cx="12" cy="12" r="12" fill="#ffffff"/>
  <path d="M12.07 5.2a6.62 6.62 0 0 0-5.72 9.96l-.74 2.7 2.76-.72a6.62 6.62 0 1 0 3.7-11.94Zm3.93 9.36c-.15.44-.9.84-1.25.9-.34.05-.77.08-1.24-.08-.29-.1-.66-.22-1.14-.43-2-.87-3.3-2.96-3.4-3.1-.1-.14-.82-1.09-.82-2.09 0-1 .53-1.5.72-1.7.19-.2.41-.24.55-.24h.4c.13 0 .31-.05.48.36.18.43.62 1.49.67 1.6.06.1.1.24.02.39-.08.14-.12.24-.25.37-.12.12-.25.27-.36.36-.12.11-.24.23-.1.46.13.22.61 1 1.31 1.61.9.8 1.65 1.05 1.88 1.17.23.11.36.1.5-.06.14-.15.57-.67.72-.9.15-.23.3-.2.5-.12.2.08 1.28.6 1.5.7.22.11.36.17.42.27.06.1.06.58-.1 1.02Z" fill="#16a34a"/>
</svg>
