<svg xmlns="http://www.w3.org/2000/svg" viewBox="0 0 960 600" role="img" aria-label="Mantenimiento técnico">
  <defs>
    <linearGradient id="bg" x1="0" y1="0" x2="1" y2="1">
      <stop offset="0" stop-color="#08193c"/>
      <stop offset="1" stop-color="#0b5cff"/>
    </linearGradient>
  </defs>
  <rect width="960" height="600" fill="url(#bg)"/>
  <circle cx="480" cy="300" r="145" fill="#edf4ff"/>
  <circle cx="480" cy="300" r="84" fill="#0b5cff"/>
  <circle cx="480" cy="300" r="28" fill="#f2f6ff"/>
  <g fill="#d9e7ff">
    <rect x="468" y="126" width="24" height="54" rx="8"/>
    <rect x="468" y="420" width="24" height="54" rx="8"/>
    <rect x="306" y="288" width="54" height="24" rx="8"/>
    <rect x="600" y="288" width="54" height="24" rx="8"/>
    <rect x="361" y="171" width="24" height="54" rx="8" transform="rotate(-45 373 198)"/>
    <rect x="575" y="375" width="24" height="54" rx="8" transform="rotate(-45 587 402)"/>
    <rect x="575" y="171" width="24" height="54" rx="8" transform="rotate(45 587 198)"/>
    <rect x="361" y="375" width="24" height="54" rx="8" transform="rotate(45 373 402)"/>
  </g>
  <path d="M662 180l74 18-37 66-74-18z" fill="#f2f6ff"/>
  <path d="M644 190l56 14-23 41-56-14z" fill="#0a2f73"/>
</svg>
